<?xml version="1.0" encoding="UTF-8"?><svg id="Layer_2" xmlns="http://www.w3.org/2000/svg" viewBox="0 0 306 306"><defs><style>.cls-1{opacity:.04;}.cls-1,.cls-2,.cls-3,.cls-4,.cls-5,.cls-6,.cls-7,.cls-8,.cls-9,.cls-10,.cls-11,.cls-12,.cls-13,.cls-14,.cls-15,.cls-16,.cls-17,.cls-18,.cls-19,.cls-20,.cls-21,.cls-22,.cls-23,.cls-24,.cls-25,.cls-26,.cls-27,.cls-28,.cls-29,.cls-30,.cls-31,.cls-32,.cls-33,.cls-34,.cls-35,.cls-36,.cls-37,.cls-38,.cls-39,.cls-40,.cls-41,.cls-42,.cls-43,.cls-44,.cls-45,.cls-46,.cls-47,.cls-48,.cls-49,.cls-50,.cls-51,.cls-52,.cls-53,.cls-54,.cls-55,.cls-56,.cls-57,.cls-58,.cls-59,.cls-60,.cls-61,.cls-62,.cls-63,.cls-64,.cls-65,.cls-66,.cls-67,.cls-68,.cls-69,.cls-70,.cls-71,.cls-72,.cls-73,.cls-74,.cls-75,.cls-76,.cls-77,.cls-78,.cls-79,.cls-80,.cls-81,.cls-82,.cls-83,.cls-84,.cls-85,.cls-86,.cls-87,.cls-88,.cls-89,.cls-90,.cls-91,.cls-92,.cls-93,.cls-94,.cls-95,.cls-96,.cls-97,.cls-98,.cls-99,.cls-100,.cls-101,.cls-102{fill:#fff;}.cls-2{opacity:.03;}.cls-3{opacity:.05;}.cls-4{opacity:.12;}.cls-5{opacity:.08;}.cls-6{opacity:.07;}.cls-7{opacity:.06;}.cls-8{opacity:.11;}.cls-9{opacity:.1;}.cls-10{opacity:.09;}.cls-12{opacity:.17;}.cls-13{opacity:.15;}.cls-14{opacity:.13;}.cls-15{opacity:.14;}.cls-16{opacity:.23;}.cls-17{opacity:.2;}.cls-18{opacity:.21;}.cls-19{opacity:.22;}.cls-20{opacity:.18;}.cls-21{opacity:.19;}.cls-22{opacity:.33;}.cls-23{opacity:.32;}.cls-24{opacity:.16;}.cls-25{opacity:.02;}.cls-26{opacity:0;}.cls-27{opacity:0;}.cls-28{opacity:.68;}.cls-29{opacity:.66;}.cls-30{opacity:.57;}.cls-31{opacity:.58;}.cls-32{opacity:.59;}.cls-33{opacity:.6;}.cls-34{opacity:.62;}.cls-35{opacity:.51;}.cls-36{opacity:.53;}.cls-37{opacity:.52;}.cls-38{opacity:.5;}.cls-39{opacity:.54;}.cls-40{opacity:.56;}.cls-41{opacity:.55;}.cls-42{opacity:.49;}.cls-43{opacity:.48;}.cls-44{opacity:.5;}.cls-45{opacity:.88;}.cls-46{opacity:.89;}.cls-47{opacity:.9;}.cls-48{opacity:.91;}.cls-49{opacity:.92;}.cls-50{opacity:.82;}.cls-51{opacity:.83;}.cls-52{opacity:.84;}.cls-53{opacity:.86;}.cls-54{opacity:.87;}.cls-55{opacity:.85;}.cls-56{opacity:.76;}.cls-57{opacity:.78;}.cls-58{opacity:.77;}.cls-59{opacity:.79;}.cls-60{opacity:.8;}.cls-61{opacity:.81;}.cls-62{opacity:.7;}.cls-63{opacity:.71;}.cls-64{opacity:.69;}.cls-65{opacity:.73;}.cls-66{opacity:.74;}.cls-67{opacity:.75;}.cls-68{opacity:.72;}.cls-69{opacity:.34;}.cls-70{opacity:.3;}.cls-71{opacity:.29;}.cls-72{opacity:.31;}.cls-73{opacity:.27;}.cls-74{opacity:.28;}.cls-75{opacity:.26;}.cls-76{opacity:.24;}.cls-77{opacity:.25;}.cls-78{opacity:.47;}.cls-79{opacity:.45;}.cls-80{opacity:.46;}.cls-81{opacity:.42;}.cls-82{opacity:.44;}.cls-83{opacity:.43;}.cls-84{opacity:.39;}.cls-85{opacity:.37;}.cls-86{opacity:.41;}.cls-87{opacity:.4;}.cls-88{opacity:.36;}.cls-89{opacity:.35;}.cls-90{opacity:.38;}.cls-91{opacity:.63;}.cls-92{opacity:.64;}.cls-93{opacity:.61;}.cls-94{opacity:.65;}.cls-95{opacity:.67;}.cls-96{opacity:.94;}.cls-97{opacity:.95;}.cls-98{opacity:.93;}.cls-99{opacity:.97;}.cls-100{opacity:.98;}.cls-101{opacity:.96;}.cls-102{opacity:.99;}</style></defs><g id="Layer_1-2"><g><circle class="cls-26" cx="153" cy="153" r="153"/><circle class="cls-27" cx="153" cy="153" r="151.78"/><circle class="cls-25" cx="153" cy="153" r="150.56"/><circle class="cls-2" cx="153" cy="153" r="149.35"/><circle class="cls-1" cx="153" cy="153" r="148.13"/><circle class="cls-3" cx="153" cy="153" r="146.91"/><circle class="cls-7" cx="153" cy="153" r="145.69"/><circle class="cls-6" cx="153" cy="153" r="144.48"/><circle class="cls-5" cx="153" cy="153" r="143.26"/><circle class="cls-10" cx="153" cy="153" r="142.04"/><circle class="cls-9" cx="153" cy="153" r="140.82"/><circle class="cls-8" cx="153" cy="153" r="139.6"/><circle class="cls-4" cx="153" cy="153" r="138.39"/><circle class="cls-14" cx="153" cy="153" r="137.17"/><circle class="cls-15" cx="153" cy="153" r="135.95"/><circle class="cls-13" cx="153" cy="153" r="134.73"/><circle class="cls-24" cx="153" cy="153" r="133.51"/><circle class="cls-12" cx="153" cy="153" r="132.3"/><circle class="cls-20" cx="153" cy="153" r="131.08"/><circle class="cls-21" cx="153" cy="153" r="129.86"/><circle class="cls-17" cx="153" cy="153" r="128.64"/><circle class="cls-18" cx="153" cy="153" r="127.43"/><circle class="cls-19" cx="153" cy="153" r="126.21"/><circle class="cls-16" cx="153" cy="153" r="124.99"/><circle class="cls-76" cx="153" cy="153" r="123.77"/><circle class="cls-77" cx="153" cy="153" r="122.55"/><circle class="cls-75" cx="153" cy="153" r="121.34"/><circle class="cls-73" cx="153" cy="153" r="120.12"/><circle class="cls-74" cx="153" cy="153" r="118.9"/><circle class="cls-71" cx="153" cy="153" r="117.68"/><circle class="cls-70" cx="153" cy="153" r="116.47"/><circle class="cls-72" cx="153" cy="153" r="115.25"/><circle class="cls-23" cx="153" cy="153" r="114.03"/><circle class="cls-22" cx="153" cy="153" r="112.81"/><circle class="cls-69" cx="153" cy="153" r="111.59"/><circle class="cls-89" cx="153" cy="153" r="110.38"/><circle class="cls-88" cx="153" cy="153" r="109.16"/><circle class="cls-85" cx="153" cy="153" r="107.94"/><circle class="cls-90" cx="153" cy="153" r="106.72"/><circle class="cls-84" cx="153" cy="153" r="105.5"/><circle class="cls-87" cx="153" cy="153" r="104.29"/><circle class="cls-86" cx="153" cy="153" r="103.07"/><circle class="cls-81" cx="153" cy="153" r="101.85"/><circle class="cls-83" cx="153" cy="153" r="100.63"/><circle class="cls-82" cx="153" cy="153" r="99.42"/><circle class="cls-79" cx="153" cy="153" r="98.2"/><circle class="cls-80" cx="153" cy="153" r="96.98"/><circle class="cls-78" cx="153" cy="153" r="95.76"/><circle class="cls-43" cx="153" cy="153" r="94.54"/><circle class="cls-42" cx="153" cy="153" r="93.33"/><circle class="cls-44" cx="153" cy="153" r="92.11"/><circle class="cls-38" cx="153" cy="153" r="90.89"/><circle class="cls-35" cx="153" cy="153" r="89.67"/><circle class="cls-37" cx="153" cy="153" r="88.46"/><circle class="cls-36" cx="153" cy="153" r="87.24"/><circle class="cls-39" cx="153" cy="153" r="86.02"/><circle class="cls-41" cx="153" cy="153" r="84.8"/><circle class="cls-40" cx="153" cy="153" r="83.58"/><circle class="cls-30" cx="153" cy="153" r="82.37"/><circle class="cls-31" cx="153" cy="153" r="81.15"/><circle class="cls-32" cx="153" cy="153" r="79.93"/><circle class="cls-33" cx="153" cy="153" r="78.71"/><circle class="cls-93" cx="153" cy="153" r="77.5"/><circle class="cls-34" cx="153" cy="153" r="76.28"/><circle class="cls-91" cx="153" cy="153" r="75.06"/><circle class="cls-92" cx="153" cy="153" r="73.84"/><circle class="cls-94" cx="153" cy="153" r="72.62"/><circle class="cls-29" cx="153" cy="153" r="71.41"/><circle class="cls-95" cx="153" cy="153" r="70.19"/><circle class="cls-28" cx="153" cy="153" r="68.97"/><circle class="cls-64" cx="153" cy="153" r="67.75"/><circle class="cls-62" cx="153" cy="153" r="66.53"/><circle class="cls-63" cx="153" cy="153" r="65.32"/><circle class="cls-68" cx="153" cy="153" r="64.1"/><circle class="cls-65" cx="153" cy="153" r="62.88"/><circle class="cls-66" cx="153" cy="153" r="61.66"/><circle class="cls-67" cx="153" cy="153" r="60.45"/><circle class="cls-56" cx="153" cy="153" r="59.23"/><circle class="cls-58" cx="153" cy="153" r="58.01"/><circle class="cls-57" cx="153" cy="153" r="56.79"/><circle class="cls-59" cx="153" cy="153" r="55.57"/><circle class="cls-60" cx="153" cy="153" r="54.36"/><circle class="cls-61" cx="153" cy="153" r="53.14"/><circle class="cls-50" cx="153" cy="153" r="51.92"/><circle class="cls-51" cx="153" cy="153" r="50.7"/><circle class="cls-52" cx="153" cy="153" r="49.49"/><circle class="cls-55" cx="153" cy="153" r="48.27"/><circle class="cls-53" cx="153" cy="153" r="47.05"/><circle class="cls-54" cx="153" cy="153" r="45.83"/><circle class="cls-45" cx="153" cy="153" r="44.61"/><circle class="cls-46" cx="153" cy="153" r="43.4"/><circle class="cls-47" cx="153" cy="153" r="42.18"/><circle class="cls-48" cx="153" cy="153" r="40.96"/><circle class="cls-49" cx="153" cy="153" r="39.74"/><circle class="cls-98" cx="153" cy="153" r="38.52"/><circle class="cls-96" cx="153" cy="153" r="37.31"/><circle class="cls-97" cx="153" cy="153" r="36.09"/><circle class="cls-101" cx="153" cy="153" r="34.87"/><circle class="cls-99" cx="153" cy="153" r="33.65"/><circle class="cls-100" cx="153" cy="153" r="32.44"/><circle class="cls-102" cx="153" cy="153" r="31.22"/><circle class="cls-11" cx="153" cy="153" r="30"/></g></g></svg>